<svg xmlns="http://www.w3.org/2000/svg" width="47" height="47" fill="none" viewBox="0 0 47 47">
  <rect width="46.384" height="47" fill="#71DDB1" rx="23.192"/>
  <path fill="#fff" d="M23.686 27.932c-.583.45-1.787 1.563-1.787 3.078 0 1.001.801 1.815 1.786 1.815.986 0 1.787-.814 1.787-1.815 0-1.435-1.205-2.6-1.786-3.078Z"/>
  <path fill="#fff" d="M27.873 17.481a.572.572 0 0 0-.826-.04l-2.722 2.573v-5.389c0-.451-.536-.788-.938-.542-.076.047-1.885 1.166-3.712 3.198-2.222 2.47-3.735 5.478-3.735 8.852 0 4.338 3.475 7.867 7.745 7.867-1.623 0-2.943-1.341-2.943-2.99 0-2.663 2.552-4.24 2.661-4.307a.571.571 0 0 1 .614.014c.107.071 2.612 1.774 2.612 4.293 0 1.649-1.32 2.99-2.944 2.99 4.271 0 7.745-3.53 7.745-7.867 0-3.275-1.426-6.211-3.557-8.652Z"/>
</svg>
