<svg xmlns="http://www.w3.org/2000/svg" width="24" height="24" fill="currentColor" viewBox="0 0 24 24">
  <path fill-rule="evenodd" d="M3.918 18.5h1.386V15H3.918v3.5Zm2.366 2H2.939a.988.988 0 0 1-.98-1V14c0-.55.439-1 .98-1h3.345c.54 0 .98.45.98 1v5.5c0 .555-.44 1-.98 1Zm4.778-2h1.386v-10h-1.386v10Zm2.365 2h-3.345a.988.988 0 0 1-.98-1v-12c0-.55.44-1 .98-1h3.345c.542 0 .98.45.98 1v12c0 .555-.438 1-.98 1Zm4.779-2h1.386V2h-1.386v16.5Zm2.365 2h-3.344a.988.988 0 0 1-.98-1V1c0-.55.439-1 .98-1h3.344c.541 0 .98.45.98 1v18.5c0 .555-.439 1-.98 1ZM22.53 24H.98A.988.988 0 0 1 0 23c0-.55.439-1 .98-1h21.55c.541 0 .98.45.98 1 0 .555-.439 1-.98 1Z" clip-rule="evenodd"/>
</svg>
