<svg xmlns="http://www.w3.org/2000/svg" width="47" height="47" fill="none" viewBox="0 0 47 47">
  <rect width="46.384" height="47" fill="#7A40F2" rx="23.192"/>
  <g clip-path="url(#a)">
    <path fill="#fff" d="M32.043 19.904a5.794 5.794 0 0 0-.06-.099c-.925-1.498-2.716-2.262-4.457-1.902a5.121 5.121 0 0 0-1.552.585c-.567.337-.963.761-1.178 1.26-.358.828-.2 1.814.466 2.93.908 1.519.69 3.081.497 4.46-.117.834-.218 1.555-.063 2.169.178.704.686 1.158 1.554 1.39.154.04.312.062.47.062.824 0 1.671-.56 2.477-1.644 1.824-2.454 3.034-7.186 1.846-9.21Zm-6.338-2.14c.075 0 .15-.007.223-.021.393-.075.723-.335.931-.733.2-.382.261-.849.175-1.314-.181-.977-.973-1.65-1.764-1.5-.392.075-.723.335-.93.733-.2.382-.262.849-.176 1.314.164.885.83 1.521 1.541 1.521Zm2.724-.476.075.003c.631 0 1.175-.59 1.23-1.351a1.593 1.593 0 0 0-.267-1.025c-.208-.298-.503-.476-.833-.5-.663-.049-1.248.556-1.305 1.348-.03.363.064.725.267 1.025.208.298.504.476.833.5Zm2.335.212a.739.739 0 0 0 .056.001c.463 0 .861-.426.9-.978a1.148 1.148 0 0 0-.192-.739.828.828 0 0 0-.615-.367c-.486-.035-.915.402-.956.976-.022.262.046.523.193.74a.827.827 0 0 0 .614.366Zm.838.625a.743.743 0 0 0 .445.46.7.7 0 0 0 .226.038c.343 0 .68-.254.816-.647a1.01 1.01 0 0 0 .004-.673.743.743 0 0 0-.445-.46c-.41-.145-.877.128-1.043.608a1.014 1.014 0 0 0-.003.674Zm2.217.503c-.332-.281-.865-.193-1.187.198a1.01 1.01 0 0 0-.238.629.749.749 0 0 0 .256.589c.13.108.294.167.462.165a.952.952 0 0 0 .726-.362 1.01 1.01 0 0 0 .237-.63.75.75 0 0 0-.256-.589Zm-14.574 3.217a4.273 4.273 0 0 0-3.772 3.216c-.552 2.199 1.451 5.84 3.61 7.627.908.751 1.79 1.137 2.568 1.137.32.003.636-.069.924-.209.82-.401 1.218-.905 1.254-1.584.03-.59-.219-1.23-.507-1.97-.473-1.215-1.01-2.592-.57-4.288.328-1.262.203-2.252-.372-2.943-.346-.417-.845-.71-1.482-.87a5.093 5.093 0 0 0-1.653-.116Zm-2.943 4.617a5.536 5.536 0 0 1-.024-.155.217.217 0 0 1 .04-.16.212.212 0 0 1 .297-.042.216.216 0 0 1 .083.141c.006.048.014.095.022.143a.217.217 0 0 1-.096.219.211.211 0 0 1-.322-.146Zm1.578 3.293a.209.209 0 0 1-.291-.071c-.492-.813-.873-1.655-1.103-2.435a.216.216 0 0 1 .143-.267.21.21 0 0 1 .161.016c.05.027.087.073.103.128.22.745.585 1.552 1.058 2.333a.217.217 0 0 1-.07.296Zm2.73-8.516c.04 0 .081-.002.122-.006.398-.041.748-.273.989-.652.23-.364.33-.823.283-1.294-.1-.99-.832-1.728-1.634-1.645-.397.041-.748.273-.988.652-.23.364-.33.823-.284 1.294.095.939.76 1.651 1.511 1.651Zm-2.769.342c.125 0 .249-.022.366-.067.308-.117.543-.373.659-.718a1.6 1.6 0 0 0-.032-1.06c-.276-.743-1.007-1.155-1.629-.918-.309.118-.543.373-.659.719-.11.346-.1.72.032 1.06.223.6.743.984 1.263.984Zm-2.086.856a.76.76 0 0 0 .574-.257.837.837 0 0 0 .184-.321c.08-.25.072-.52-.022-.764-.2-.539-.734-.836-1.19-.662a.824.824 0 0 0-.488.53c-.08.249-.072.518.022.763.162.434.54.711.92.711Zm-1.07 1.492a.698.698 0 0 0 .628-.382.75.75 0 0 0 .085-.32 1.012 1.012 0 0 0-.192-.644c-.293-.413-.818-.54-1.17-.284a.74.74 0 0 0-.297.569c-.012.23.056.459.191.645a.95.95 0 0 0 .755.416Zm-.949 1.592a.993.993 0 0 0 .553.174c.26 0 .5-.112.641-.326a.747.747 0 0 0 .08-.639 1 1 0 0 0-.403-.535c-.418-.281-.954-.213-1.194.152a.747.747 0 0 0-.08.64c.07.22.212.408.403.534Z"/>
  </g>
  <defs>
    <clipPath id="a">
      <path fill="#fff" d="M12.83 13h21.712v22H12.83z"/>
    </clipPath>
  </defs>
</svg>
