<svg xmlns="http://www.w3.org/2000/svg" width="20" height="20" fill="currentColor" viewBox="0 0 20 20">
  <path d="M11.667 5.417a4.167 4.167 0 1 1-8.333 0 4.167 4.167 0 0 1 8.333 0Zm-.625 5.833H3.958A3.963 3.963 0 0 0 0 15.208v2.917c0 .345.28.625.625.625h13.75c.345 0 .625-.28.625-.625v-2.917a3.963 3.963 0 0 0-3.958-3.958ZM19.8 8.292l-2.916-2.709a.624.624 0 0 0-.425-.166c-.413 0-.626.352-.626.625v1.875H12.5a.833.833 0 1 0 0 1.666h3.333v1.875a.625.625 0 0 0 1.051.459l2.917-2.709a.629.629 0 0 0 0-.916Z"/>
</svg>
