<svg xmlns="http://www.w3.org/2000/svg" width="24" height="24" fill="currentColor" viewBox="0 0 24 24">
  <path d="M2.915 10.42A9.99 9.99 0 0 1 5.01 6.799a.59.59 0 0 1 .634-.16l2.257.808a1.176 1.176 0 0 0 1.553-.897l.43-2.36a.588.588 0 0 1 .456-.47 10.037 10.037 0 0 1 4.182 0c.233.05.413.235.456.47l.431 2.36a1.176 1.176 0 0 0 1.554.897l2.256-.807a.588.588 0 0 1 .635.16 9.99 9.99 0 0 1 2.095 3.622.588.588 0 0 1-.18.63l-1.829 1.552a1.176 1.176 0 0 0 0 1.794l1.83 1.553a.588.588 0 0 1 .179.63 9.99 9.99 0 0 1-2.095 3.622.588.588 0 0 1-.634.16l-2.257-.808a1.176 1.176 0 0 0-1.554.897l-.43 2.36a.588.588 0 0 1-.457.47 10.039 10.039 0 0 1-4.182 0 .588.588 0 0 1-.456-.47l-.43-2.36a1.176 1.176 0 0 0-1.553-.897l-2.257.807a.588.588 0 0 1-.634-.16 9.99 9.99 0 0 1-2.095-3.622.588.588 0 0 1 .179-.63l1.83-1.552a1.177 1.177 0 0 0 0-1.794l-1.83-1.553a.588.588 0 0 1-.179-.63Zm7.164 3.08a2.353 2.353 0 1 0 4.706 0 2.353 2.353 0 0 0-4.706 0Z"/>
</svg>
