<svg xmlns="http://www.w3.org/2000/svg" width="212" height="212" fill="none" viewBox="0 0 212 212">
  <path fill="#71DDB1" d="M92.773 44.054a.503.503 0 0 1-.027-.058l.013-.012a.516.516 0 0 1 .014.07Zm.051.254c-.02-.07-.034-.14-.042-.212.034.065.05.139.042.212Zm9.523 72.998c-.053.121-.097.24-.15.365-3.914 9.529-6.644 20.93-7.278 34.575-10.865-26.615-28.89-39.498-44.944-45.684.288-8.894 1.524-24.359 6.572-33.86 0 0 8.548 1.998 19.307 10.427 8.488 6.65 18.365 17.317 26.493 34.177Zm1.603-.144-.367-.083c.053-.127.1-.248.151-.371.072.149.146.316.216.454Z"/>
  <path fill="#71DDB1" d="m103.95 117.162-.367-.083c.053-.127.1-.248.151-.371.072.149.146.316.216.454Zm-7.026 61.09h-.314c-40.538 0-74.119-30.721-80.135-70.857-.405-3.426-.467-5.472-.467-5.472s14.628-1.484 31.588 5.192c15.042 5.921 31.921 18.249 42.095 43.715v.019c.061.152.123.303.178.462 3.04 7.706 5.461 16.608 7.043 26.883.006.02.012.039.012.058Zm94.368-75.099c-3.873 45.459-40.751 81.153-85.716 81.336.025-2.065.672-25.4 14.757-46.555a72.733 72.733 0 0 1 24.688-23.14c.282-.163.555-.318.848-.473.345-.197.699-.386 1.06-.575.091-.053.188-.101.288-.154.346-.183.691-.365 1.045-.541.182-.093.365-.189.556-.275a37.16 37.16 0 0 1 1.149-.569c.385-.182.725-.343 1.091-.511l.13-.061c.275-.129.549-.25.829-.371.347-.163.693-.312 1.045-.46a65.96 65.96 0 0 1 3.163-1.272l.373-.142c.456-.176.914-.344 1.378-.507 9.328-3.307 20.341-5.408 33.316-5.73Zm-61.198-21.09c-9.186 6.958-19.534 17.925-26.36 34.645-8.122-17.193-17.971-28.073-26.443-34.855 5.003-9.328 16.343-28.287 26.659-37.155 0 0 15.618 15.427 26.144 37.365Z"/>
  <path fill="#71DDB1" d="M157.05 107.109c-.454.159-.904.324-1.353.496l-.365.14c-1.06.396-2.094.814-3.101 1.251-.346.146-.685.29-1.024.449-.276.121-.545.24-.814.365l-.13.059c-.358.165-.716.331-1.06.505-.343.173-.756.362-1.13.555-.184.085-.364.178-.542.271-.348.172-.687.35-1.026.53-.096.053-.193.098-.282.151-.346.186-.691.371-1.033.564a71.39 71.39 0 0 0-25.056 23.161c-13.814 20.75-14.45 43.642-14.475 45.667l-.032-.06c-1.654-10.744-4.183-20.051-7.363-28.107l.25-.82-.434.337v-.013c.62-13.648 3.292-25.06 7.125-34.585l.358.078-.212-.443c6.697-16.402 16.848-27.16 25.864-33.984 10.619-8.034 19.672-10.636 19.672-10.636 4.829 5.97 5.931 24.232 6.163 34.069Z"/>
  <path stroke="#CCDDE2" stroke-miterlimit="10" stroke-width=".842" d="M95.896 154.623v-.022.022Zm7.836-37.707c-.055.129-.104.256-.159.392-4.132 10.274-7.013 22.58-7.685 37.299-11.47-28.711-30.5-42.612-47.459-49.283.303-9.595 1.61-26.278 6.943-36.53 0 0 9.025 2.156 20.386 11.25 8.964 7.175 19.392 18.682 27.974 36.872Z"/>
  <path stroke="#CCDDE2" stroke-miterlimit="10" stroke-width=".842" d="m103.961 117.395-.388-.087c.055-.136.103-.263.159-.392.076.157.148.32.229.479Zm-8.065 37.228v-.022.022Z"/>
  <path stroke="#CCDDE2" stroke-miterlimit="10" stroke-width=".842" d="m103.961 117.395-.388-.087c.055-.136.103-.263.159-.392.076.157.148.32.229.479Z"/>
  <path stroke="#CCDDE2" stroke-miterlimit="10" stroke-width=".842" d="M33.816 151.61a78.142 78.142 0 0 1-2.192-2.799 97.075 97.075 0 0 1-18.287-43.174c-.617-3.839-.522-6.167-.522-6.167s16.483-1.67 35.616 5.854c16.96 6.673 35.985 20.564 47.457 49.283v.024c.07.171.142.343.199.521 3.434 8.692 6.161 18.724 7.946 30.316v.066h-.357c-23.652-.034-45.223-9.468-61.488-24.88a93.406 93.406 0 0 1-4.925-5.018" opacity=".9"/>
  <path stroke="#CCDDE2" stroke-miterlimit="10" stroke-width=".842" d="M95.896 154.623v-.022.022Z"/>
  <path stroke="#CCDDE2" stroke-miterlimit="10" stroke-width=".842" d="M194.747 99.477c-4.098 48.092-43.106 85.847-90.676 86.04.027-2.184.712-26.869 15.609-49.25a76.989 76.989 0 0 1 26.121-24.477c.299-.172.589-.335.892-.498.367-.212.74-.408 1.113-.609.096-.057.2-.106.304-.163a46.05 46.05 0 0 1 1.106-.57c.193-.102.386-.212.587-.295.401-.212.808-.405 1.217-.598.409-.193.766-.365 1.154-.543l.137-.065c.291-.136.581-.263.878-.393.367-.171.731-.328 1.105-.485a71.295 71.295 0 0 1 3.345-1.348l.394-.151c.484-.184.967-.365 1.459-.534 9.881-3.507 21.533-5.72 35.255-6.061Z" opacity=".9"/>
  <path stroke="#CCDDE2" stroke-miterlimit="10" stroke-width=".842" d="M131.616 80.267c-9.716 7.359-20.664 18.96-27.884 36.649-8.582-18.19-19.01-29.697-27.974-36.871 5.3-9.873 17.29-29.924 28.196-39.305.007 0 16.515 16.32 27.662 39.527Z"/>
  <path fill="#fff" d="M40.123 132.805a.14.14 0 0 0 0-.042v-.057a.263.263 0 0 1 0-.072c.006.05.016.101.03.15a.057.057 0 0 1-.013.014.05.05 0 0 1-.017.007Zm.079 13.706a19.168 19.168 0 0 1-1.25 3.063c-.143.278-.285.55-.442.821a13.903 13.903 0 0 1-1.957 2.786c-.136-.045-.271-.102-.392-.151-.028 0-.051-.021-.072-.03-2.47-1.077-4.325-3.097-4.876-5.367-.492-2-.049-4.162-.999-6.038-1.17-2.311-4.324-3.757-4.719-6.369-.356-2.442 1.842-4.683 1.484-7.074-.407-2.707-3.733-4.312-4.348-6.954-.392-1.641-.042-3.534-.184-5.226a34.389 34.389 0 0 0-.959-5.603c.23-.015.458-.021.687-.029 4.664-.079 9.28 2.544 10.793 6.239 1.221 2.985.6 6.432 2.22 9.23.098.181.208.355.328.522.213.295.442.578.685.848l.515.536c.085.085.178.163.263.257.085.093.178.171.265.265.806.769 1.628 1.547 2.163 2.469.049.08.092.164.129.251.05.083.093.171.127.263.046.093.087.188.123.286.042.106.078.212.112.328.051.172.102.335.136.507 0 .042 0 .078.015.114.015.037 0 .028 0 .043a.093.093 0 0 1 0 .042.448.448 0 0 0 .015.072v.015c0 .027.005.053.013.079v.057a.134.134 0 0 1 0 .042v.015l-.55 7.967c.352 1.927 1.232 3.848.675 5.724Z"/>
  <path fill="#fff" d="M44.348 127.172c.358-1.727.386-3.54 1.2-5.189 1.514-3.04 5.936-5.247 10.573-5.389h.084c.424 0 .848 0 1.272.021a25.867 25.867 0 0 0-.977 4.846c-.157 1.463.212 3.1-.193 4.505-.65 2.283-4.113 3.67-4.532 6.004-.373 2.069 1.918 4.005 1.54 6.11-.406 2.256-3.69 3.504-4.903 5.512-.98 1.622-.521 3.483-1.028 5.204-.593 1.964-2.544 3.713-5.111 4.633-.166.057-.314.114-.48.165-.086.021-.186.057-.27.078-.03-.021-.058-.05-.094-.078-.829-.706-1.758-1.897-2.527-3.18l.057-.814c.504-.983.922-2.008 1.249-3.063.557-1.877-.322-3.797-.636-5.724l.549-7.967.172-.142c.062-.047.122-.097.178-.151.848-.685 1.764-1.342 2.419-2.12.814-.956 1.193-2.006 1.435-3.106"/>
  <path fill="#fff" d="M44.327 127.287c0-.036.015-.07.021-.115l-.021.115Z"/>
  <path fill="#fff" d="M44.348 127.166c0 .045-.015.079-.02.115-.243 1.1-.622 2.149-1.436 3.105-.655.778-1.569 1.436-2.42 2.12a1.606 1.606 0 0 1-.177.151l-.172.148a.043.043 0 0 0 0-.027.638.638 0 0 0-.023-.072.263.263 0 0 1 0-.072v-.015a.485.485 0 0 1-.015-.072.1.1 0 0 0 0-.043.047.047 0 0 0 .005-.021.919.919 0 0 0-.028-.136c-.034-.171-.085-.335-.136-.506-.034-.108-.07-.223-.112-.329a2.928 2.928 0 0 0-.123-.286 1.051 1.051 0 0 0-.128-.263 1.824 1.824 0 0 0-.129-.25c-.534-.922-1.357-1.696-2.162-2.47a4.414 4.414 0 0 0-.265-.265c-.087-.078-.178-.172-.263-.256l-.515-.537a9.913 9.913 0 0 1-.685-.848s.475-8.253 4.694-10.75c3.983-2.379 4.11 10.186 4.11 11.579Z"/>
  <path fill="#fff" d="M44.327 127.287c0-.036.015-.07.021-.115l-.021.115Zm-4.21 5.491v.034a.148.148 0 0 0 0-.043v-.057a.993.993 0 0 0 0 .066Zm14.278-13.543c-7.605 8.183-11.179 25.44-12.572 34.344-.114.753-.212 1.44-.305 2.059m13.579 5.013-3.498 20.641a2.417 2.417 0 0 1-2.332 2.065H30.979a2.413 2.413 0 0 1-2.331-2.097l-3.227-20.609h29.676Z"/>
  <path fill="#fff" d="M58.419 158.349a2.43 2.43 0 0 1-2.366 2.302h-31.54a2.426 2.426 0 0 1-2.363-2.266c-.134-1.471.962-2.756 2.364-2.756h31.539c1.386.011 2.478 1.251 2.366 2.72ZM40.138 132.82a.437.437 0 0 0-.023-.136l.023.136Z"/>
  <path fill="#fff" d="M24.51 113.401c7.298 9.481 10.733 29.468 12.083 39.786.115.895.212 1.715.3 2.449m3.887-32.161c-.913 2.813-.958 5.654-.848 7.454.03.581.091 1.16.185 1.734"/>
  <path stroke="#CCDDE2" stroke-miterlimit="10" stroke-width=".842" d="M40.123 132.805a.14.14 0 0 0 0-.042v-.057a.263.263 0 0 1 0-.072c.006.05.016.101.03.15a.057.057 0 0 1-.013.014.05.05 0 0 1-.017.007Zm.079 13.706a19.168 19.168 0 0 1-1.25 3.063c-.143.278-.285.55-.442.821a13.903 13.903 0 0 1-1.957 2.786c-.136-.045-.271-.102-.392-.151-.028 0-.051-.021-.072-.03-2.47-1.077-4.325-3.097-4.876-5.367-.492-2-.049-4.162-.999-6.038-1.17-2.311-4.324-3.757-4.719-6.369-.356-2.442 1.842-4.683 1.484-7.074-.407-2.707-3.733-4.312-4.348-6.954-.392-1.641-.042-3.534-.184-5.226a34.389 34.389 0 0 0-.959-5.603c.23-.015.458-.021.687-.029 4.664-.079 9.28 2.544 10.793 6.239 1.221 2.985.6 6.432 2.22 9.23.098.181.208.355.328.522.213.295.442.578.685.848l.515.536c.085.085.178.163.263.257.085.093.178.171.265.265.806.769 1.628 1.547 2.163 2.469.049.08.092.164.129.251.05.083.093.171.127.263.046.093.087.188.123.286.042.106.078.212.112.328.051.172.102.335.136.507 0 .042 0 .078.015.114.015.037 0 .028 0 .043a.093.093 0 0 1 0 .042.448.448 0 0 0 .015.072v.015c0 .027.005.053.013.079v.057a.134.134 0 0 1 0 .042v.015l-.55 7.967c.352 1.927 1.232 3.848.675 5.724Z"/>
  <path stroke="#CCDDE2" stroke-miterlimit="10" stroke-width=".842" d="M44.348 127.172c.358-1.727.386-3.54 1.2-5.189 1.514-3.04 5.936-5.247 10.573-5.389h.084c.424 0 .848 0 1.272.021a25.86 25.86 0 0 0-.977 4.846c-.157 1.463.212 3.1-.193 4.505-.65 2.283-4.113 3.67-4.532 6.004-.373 2.069 1.918 4.005 1.54 6.11-.406 2.256-3.69 3.504-4.903 5.512-.98 1.622-.521 3.483-1.028 5.204-.593 1.964-2.544 3.713-5.111 4.633-.166.057-.314.114-.48.165-.086.021-.186.057-.27.078-.03-.021-.058-.05-.094-.078-.829-.706-1.758-1.897-2.527-3.18l.057-.814c.504-.983.922-2.008 1.249-3.063.557-1.877-.322-3.797-.636-5.724l.549-7.967.172-.142c.062-.047.122-.097.178-.151.848-.685 1.764-1.342 2.419-2.12.814-.956 1.193-2.006 1.435-3.106"/>
  <path stroke="#CCDDE2" stroke-miterlimit="10" stroke-width=".842" d="M44.327 127.287c0-.036.015-.07.021-.115"/>
  <path stroke="#CCDDE2" stroke-miterlimit="10" stroke-width=".842" d="M44.348 127.166c0 .045-.015.079-.02.115-.243 1.1-.622 2.149-1.436 3.105-.655.778-1.569 1.436-2.42 2.12a1.606 1.606 0 0 1-.177.151l-.172.148a.043.043 0 0 0 0-.027.638.638 0 0 0-.023-.072.263.263 0 0 1 0-.072v-.015a.485.485 0 0 1-.015-.072.1.1 0 0 0 0-.043.047.047 0 0 0 .005-.021.919.919 0 0 0-.028-.136c-.034-.171-.085-.335-.136-.506-.034-.108-.07-.223-.112-.329a2.928 2.928 0 0 0-.123-.286 1.051 1.051 0 0 0-.128-.263 1.824 1.824 0 0 0-.129-.25c-.534-.922-1.357-1.696-2.162-2.47a4.414 4.414 0 0 0-.265-.265c-.087-.078-.178-.172-.263-.256l-.515-.537a9.913 9.913 0 0 1-.685-.848s.475-8.253 4.694-10.75c3.983-2.379 4.11 10.186 4.11 11.579Z"/>
  <path stroke="#CCDDE2" stroke-miterlimit="10" stroke-width=".842" d="M44.327 127.287c0-.036.015-.07.021-.115m-4.231 5.606v.034a.148.148 0 0 0 0-.043v-.057a.993.993 0 0 0 0 .066Zm14.278-13.543c-7.605 8.183-11.179 25.44-12.572 34.344-.114.753-.212 1.44-.305 2.059m13.579 5.013-3.498 20.641a2.417 2.417 0 0 1-2.332 2.065H30.979a2.413 2.413 0 0 1-2.331-2.097l-3.227-20.609h29.676Z"/>
  <path stroke="#CCDDE2" stroke-miterlimit="10" stroke-width=".842" d="M58.419 158.349a2.43 2.43 0 0 1-2.366 2.302h-31.54a2.426 2.426 0 0 1-2.363-2.266c-.134-1.471.962-2.756 2.364-2.756h31.539c1.386.011 2.478 1.251 2.366 2.72ZM40.138 132.82a.437.437 0 0 0-.023-.136l.023.136Z"/>
  <path stroke="#CCDDE2" stroke-miterlimit="10" stroke-width=".842" d="M24.51 113.401c7.298 9.481 10.733 29.468 12.083 39.786.115.895.212 1.715.3 2.449m3.887-32.161c-.913 2.813-.958 5.654-.848 7.454.03.581.091 1.16.185 1.734m119.375-27.125c-.492.169-.975.35-1.459.534l-.394.151c-1.141.424-2.26.877-3.345 1.348-.374.157-.738.314-1.105.485-.297.13-.587.257-.878.393l-.137.065c-.388.178-.774.356-1.154.543-.379.187-.816.392-1.217.598-.212.093-.394.193-.587.295-.373.184-.74.377-1.106.57-.104.057-.212.106-.304.163-.373.201-.746.401-1.113.609-.303.163-.593.326-.892.498a76.989 76.989 0 0 0-26.121 24.477c-14.897 22.381-15.582 47.064-15.609 49.25l-.036-.064c-1.783-11.585-4.512-21.624-7.94-30.316l.27-.884-.469.365v-.015c.672-14.719 3.553-27.026 7.685-37.299l.388.087-.229-.479c7.221-17.69 18.168-29.29 27.884-36.649 11.448-8.666 21.215-11.473 21.215-11.473 5.215 6.445 6.403 26.14 6.653 36.748Z"/>
  <path fill="#fff" d="M160.185 181.684a54.165 54.165 0 0 1-4.469-1.094c-5.983-1.749-12.932-4.734-15.315-11.009a10.527 10.527 0 0 1 1.359-9.811 8.882 8.882 0 0 1 4.325-3.208c3.784-1.223 7.971.683 10.778 3.502 2.807 2.82 4.613 6.449 6.812 9.765-1.989-4.452-4.007-9.033-4.281-13.901-.212-3.795.819-7.91 3.435-10.761 2.408-2.625 8.039-4.679 11.354-2.756 2.188 1.272 3.062 3.977 3.437 6.479 1.03 6.845-.293 13.801-1.609 20.598.884-3.634 1.834-7.302 3.636-10.579 1.802-3.278 4.564-6.174 8.102-7.388 2.479-.848 5.421-.757 7.497.848 1.935 1.484 2.8 4.013 3.067 6.442.445 4.075-.513 8.207-2.162 11.957-6.154 13.999-23.223 13.46-35.966 10.916Z"/>
  <path fill="#fff" d="M174.071 174.754s9.487 2.635 12.837-10.552l-12.837 10.552Zm-4.221-22.508c-2.637 5.978 0 23.915 0 23.915v-23.915Zm-8.791 22.101c-.397-.068-4.202-.6-7.446-2.091-2.512-1.153-4.689-2.883-4.689-5.414"/>
  <path fill="#fff" d="M154.374 166.844s-3.708 4.323-.761 5.414l.761-5.414Zm-2.461 9.347c.528-.733 3.273.738 5.067-2.724l-5.067 2.724Zm16.765-16.031c-.937-.704-3.392 0-3.753-5.629l3.753 5.629Zm.409 5.274s4.104-1.484 4.104-4.696l-4.104 4.696Zm8.821 9.396s2.141-5.527 3.021-7.988l-3.021 7.988Zm6.649-5.281s2.351 1.864 5.164-1.126l-5.164 1.126Zm0-2.705s-1.518-.659-.814-4.452l.814 4.452Z"/>
  <path stroke="#CCDDE2" stroke-miterlimit="10" stroke-width=".842" d="M160.185 181.684c-1.535-.212-3.012-.668-4.469-1.094-5.983-1.749-12.932-4.734-15.315-11.009a10.527 10.527 0 0 1 1.359-9.811 8.882 8.882 0 0 1 4.325-3.208c3.784-1.223 7.971.683 10.778 3.502 2.807 2.82 4.613 6.449 6.812 9.765-1.989-4.452-4.007-9.033-4.281-13.901-.212-3.795.819-7.91 3.435-10.761 2.408-2.625 8.039-4.679 11.354-2.756 2.188 1.272 3.062 3.977 3.437 6.479 1.03 6.845-.293 13.801-1.609 20.598.884-3.634 1.834-7.302 3.636-10.579 1.802-3.278 4.564-6.174 8.102-7.388 2.479-.848 5.421-.757 7.497.848 1.935 1.484 2.8 4.013 3.067 6.442.445 4.075-.456 8.234-2.162 11.957-6.254 13.63-23.454 12.599-35.966 10.916Z"/>
  <path stroke="#CCDDE2" stroke-miterlimit="10" stroke-width=".842" d="M174.071 174.754s9.487 2.635 12.837-10.552m-17.058-11.956c-2.637 5.978 0 23.915 0 23.915m-8.791-1.814c-.397-.068-4.202-.6-7.446-2.091-2.512-1.153-4.689-2.883-4.689-5.414"/>
  <path stroke="#CCDDE2" stroke-miterlimit="10" stroke-width=".842" d="M154.374 166.844s-3.708 4.323-.761 5.414m-1.7 3.933c.528-.733 3.273.738 5.067-2.724m11.698-13.307c-.937-.704-3.392 0-3.753-5.629m4.162 10.903s4.104-1.484 4.104-4.696m4.717 14.092s2.141-5.527 3.021-7.988m3.628 2.707s2.351 1.864 5.164-1.126m-5.164-1.579s-1.518-.659-.814-4.452m1.46-28.529a31.102 31.102 0 0 1 5.039 5.527 22.54 22.54 0 0 1 4.334 12.533m-75.489-92.8c3.816-2.298 7.795-4.34 12.027-5.782 10.551-3.604 22.315-2.804 30.674 5.105 7.246 6.85 10.672 17.026 11.371 26.778 0 .142.024.293.03.443.32 5.025.057 10.573.021 16.125m-137.301-.308c.956-6.103-.212-11.844-.848-18.126-1.637-16.366 3.568-35.948 22.42-38.397 10.244-1.336 18.56 2.491 25.485 9.83 1.556 1.648 3.112 3.583 4.76 5.453m-59.17 95.292s-14.278-6.288-12.849-18.103c.399-3.335 1.97-6.317 3.954-9.059"/>
  <path fill="#fff" d="M157.516 163.414a23.627 23.627 0 0 0-1.696-1.115c-5.864-3.471-13.854-4.817-20.553-5.22a43.15 43.15 0 0 0-1.211-.068 3.64 3.64 0 0 1-1.514-.404 3.52 3.52 0 0 1-1.233-1.037 39.057 39.057 0 0 0-1.183-3.816l-.942-4.24a31.153 31.153 0 0 1-.824-3.733c-.976-6.375-1.696-14.298-1.951-17.264a.406.406 0 0 0 .096.028l2.91.933a.17.17 0 0 1 .032 0l1.033.303c4.002 1.136 8.202 1.988 12.372 2.08 3.93.082 8.243-.562 11.601-2.737.282-.178.556-.369.822-.573 2.591-1.95 4.391-4.944 5.41-7.982a34.656 34.656 0 0 0 1.177-17.445 30.888 30.888 0 0 0-1.316-4.71c-1.484-4.082-3.628-7.906-5.468-11.873-.424-.924-1.03-1.893-1.104-2.919-.09-1.223.538-2.4.735-3.59.23-1.428.336-2.874.318-4.322a13.53 13.53 0 0 0-.969-5.011c-.549-1.34-1.524-3.587-3.256-3.505-.555-1.776-1.484-3.833-3.119-4.064a1.628 1.628 0 0 0-1.204.293 5.48 5.48 0 0 0-.388-.494c-.682-.768-1.973-1.459-3.01-1.06-2.056.814-1.115 3.644-.095 5.792a5.516 5.516 0 0 0-1.599-.106c-1.198.106-2.584.589-3.048 1.742-.253.636-.164 1.783.481 2.144.818.447 1.823.15 2.641.57.914.47 1.272 1.732 1.139 2.686a1.696 1.696 0 0 1-.424 1.009c-1.446 1.446-2.438-2.544-2.987-3.201-.747-.897-1.841-.734-2.619.023-1.537 1.484-.869 4.473-.224 6.267.699 1.963 1.609 4.028 3.061 5.556 2.415 2.534 2.68 6.572 3.318 9.84a93.66 93.66 0 0 1 .718 4.074c.403 2.641.636 5.3.424 7.967a5.316 5.316 0 0 1-1.989 3.773 5.33 5.33 0 0 1-4.12 1.103 1489.43 1489.43 0 0 1-5.905-.914s.017-.017.028-.021c-2.936-.999-5.533-1.121-8.117-1.257a2252.57 2252.57 0 0 1-13.838-2.188.653.653 0 0 1-.534-.636l-.089-8.094c.498.61 1.579.695 2.241.341a1.46 1.46 0 0 0 .791-1.452c.428-.004.85-.112 1.227-.316a2.43 2.43 0 0 0 .32-.212 2.055 2.055 0 0 0 .685-1.484c.009-.155.001-.31-.023-.464 0-.058-.017-.113-.028-.174a4.948 4.948 0 0 0-.085-.36 2.352 2.352 0 0 0-.061-.212c-.055-.213-.117-.425-.163-.637a.286.286 0 0 0 .074 0 3.309 3.309 0 0 0 1.486-.432.113.113 0 0 0 .044-.027 3.45 3.45 0 0 0 .605-.471c.082-.078.161-.16.235-.246a3.93 3.93 0 0 0 .265-.348c.04-.051.075-.106.106-.163a5.11 5.11 0 0 0 .636-1.53l.034-.151c.424-2.018-.212-4.323-1.984-5.075-.355-.15-1.61-.297-1.61-.83a.473.473 0 0 1 .017-.112.046.046 0 0 1 0-.023.691.691 0 0 1 .142-.212c.028-.034.066-.068.1-.102.074-.066.157-.127.235-.19a2.249 2.249 0 0 0 .321-.257c.055-.062.112-.123.163-.184.05-.061.097-.125.14-.191.044-.068.089-.136.129-.212a1.22 1.22 0 0 0 .112-.212c.064-.126.117-.257.157-.392a2.91 2.91 0 0 0 .134-.685v-.253c0-1.86-1.518-3.788-3.437-3.992a2.06 2.06 0 0 0-.918.109 4.33 4.33 0 0 0-.424.173l-.212.1c-.144.068-.29.14-.441.212-.127.06-.264.095-.405.102a.481.481 0 0 1-.095-.013l-.061-.017a.226.226 0 0 1-.117-.066.33.33 0 0 1-.091-.101.445.445 0 0 1-.043-.132c0-.003.001-.006.003-.008a.636.636 0 0 1-.015-.15 1.047 1.047 0 0 1 .044-.31c.06-.22.09-.445.089-.672 0-.083-.006-.165-.017-.246a2.742 2.742 0 0 0-.051-.337c-.207-.82-.7-1.54-1.39-2.03-1.944-1.373-5.589-1.38-6.594 1.167-.021.038-.031.078-.048.116-.13-.15-.259-.307-.388-.464a2.245 2.245 0 0 0-.28-.153c-1.346-.587-3.273-.335-4.255.815-.814.954-1.081 2.427-.358 3.508a3.392 3.392 0 0 0-1.582-1.132c.075.21.175.41.297.596a2.736 2.736 0 0 0-.337-.382 3.973 3.973 0 0 0-.184-.17 7.709 7.709 0 0 0-.195-.156c-1.262-.925-3.119-1.02-4.296.135-.92.903-1.11 2.152-.784 3.363.327 1.21 1.109 2.052 1.696 3.095-1.99.5-3.583 2.707-2.955 4.776a2.864 2.864 0 0 0 1.783 1.862c.15.038.305.064.46.078a.379.379 0 0 1 .335.443c-.032.14-.048.281-.05.424a1.989 1.989 0 0 0 .963 1.696.365.365 0 0 1 .13.515 2.782 2.782 0 0 0-.185 2.898c.655 1.313 2.26 2.451 3.774 2.002a2.218 2.218 0 0 0 1.193-.88.528.528 0 0 0 .079-.106 2.704 2.704 0 0 0 .447-1.115c.373.591.79 1.153 1.249 1.68l.275.308-.837 5.165-.123.93a1.35 1.35 0 0 1-1.336 1.162h-.56c-.374 0-.745.011-1.114.021a93.372 93.372 0 0 0-5.864.337 46.34 46.34 0 0 0-1.251.117c-.42.044-.835.085-1.25.129-.813.091-1.631.185-2.445.293-.982.129-1.957.263-2.939.403-1.534.224-3.065.47-4.602.735a468.42 468.42 0 0 0-4.484.802c-2.103.388-4.227.712-6.36 1.06a3.989 3.989 0 0 1-4.621-3.816c-.24-6.996 3.722-19.757 3.722-19.757.091-.992 1.272-1.696 1.963-2.26 1.978-1.562 3.147-4.36 3.83-6.716.483-1.68.94-4.08-.482-5.459-.78-.757-1.874-.92-2.618-.023-.55.661-1.542 4.647-2.99 3.201a1.695 1.695 0 0 1-.424-1.009c-.125-.952.212-2.213 1.137-2.686.818-.424 1.823-.123 2.641-.57.636-.36.734-1.514.482-2.144-.465-1.153-1.85-1.636-3.049-1.742a5.511 5.511 0 0 0-1.599.106c1.02-2.148 1.964-4.978-.095-5.79-1.037-.41-2.332.28-3.01 1.047a5.492 5.492 0 0 0-.386.494 1.641 1.641 0 0 0-1.206-.292c-1.643.23-2.561 2.287-3.117 4.066-1.715-.085-2.686 2.12-3.241 3.458a13.291 13.291 0 0 0-.986 4.85c-.053 1.77.072 3.542.373 5.287.14.753.392 1.47.572 2.205.198.802-.017 1.597-.307 2.35-1.138 2.88-2.743 5.577-3.947 8.437a58.319 58.319 0 0 0-3.13 9.362c-1.496 6.324-1.804 13.029-.055 19.336 3.308 11.919 20.064 8.005 29.663 4.664 4.014-1.395 6.784-2.696 6.784-2.696s.022.924.022 2.488v.212c-.011 2.12-.195 19.034-3.045 31.453l-.095.163c.023-.017.068-.017.095.134a1.95 1.95 0 0 1-1.777 1.132c-6.821-.028-35.55.941-30.103 19.504 1.02 3.487 3.682 5.724 7.42 7.047 2.968 1.06 6.616 1.52 10.657 1.554h.028c-7.9 1.496-9.738 13.247-.925 15.024 3.392.683 6.078-1.514 9.127-2.451a16.886 16.886 0 0 1 5.372-.682c1.185.028 2.366.139 3.536.33a180.106 180.106 0 0 0 38.762 2.108c8.762-.482 17.694-1.582 26.008-4.514 6.267-2.213 13.144-6.086 16.231-12.084a14.687 14.687 0 0 0 1.647-6.833c-.008-5.649-2.62-9.669-6.54-12.499Z"/>
  <path stroke="#CCDDE2" stroke-miterlimit="10" stroke-width=".842" d="m25.317 183.143-.32-.304"/>
  <path fill="#353642" d="m130.132 151.444-.943-4.25a30.93 30.93 0 0 1-.823-3.734c-.975-6.374-1.696-14.295-1.953-17.261l3.041.969-1.06-2.359s-3.492-11.752 3.493-16.926c-5.052-1.72-9.099-.836-13.826-1.923a89.804 89.804 0 0 0-5.868-1.143l-1.537-.269c-.062 4.176-2.968 5.124-5.36 5.578-5.887 1.127-9.964-3.168-9.794-6.907-6.536.074-12.996.937-19.464 2.035.835 2.45 2.595 9.794-2.355 18.478l.636-.022c4.013-1.397 6.784-2.696 6.784-2.696s.023.924.023 2.489v.212c-.01 2.107-.195 19.033-3.044 31.45-.212.405-.047-.093 0 .356a3.758 3.758 0 0 0-.352 1.096l.138-.549c-.768 1.1 1.153 2.434 3.928 3.106 7.255 1.772 47.244 4.876 49.502-2.557a2.45 2.45 0 0 0 .013-1.361 39.32 39.32 0 0 0-1.179-3.812Z"/>
  <path fill="#71DDB1" d="M77.87 196.585a16.963 16.963 0 0 0-5.366.685c-3.05.935-5.741 3.134-9.129 2.449-8.813-1.777-6.972-13.528.927-15.025a100.89 100.89 0 0 1 2.264-.021h.05c3.639 0 7.183.096 10.092-.909-.273.252-7.36 6.538 1.162 12.821Z"/>
  <path stroke="#000" stroke-miterlimit="10" stroke-width=".842" d="M110.649 104.539v.011c-.061 4.176-2.968 5.124-5.359 5.578-5.888 1.127-9.964-3.168-9.795-6.907m-31.187 81.473c-7.9 1.497-9.74 13.248-.926 15.025 3.392.685 6.078-1.514 9.128-2.449a16.961 16.961 0 0 1 5.37-.685c1.183.033 2.361.147 3.528.342a180.11 180.11 0 0 0 38.762 2.12c8.762-.484 17.691-1.582 26.006-4.514 6.269-2.215 13.144-6.088 16.231-12.084a14.68 14.68 0 0 0 1.647-6.835c0-5.656-2.618-9.675-6.53-12.508a25.057 25.057 0 0 0-1.696-1.115c-5.863-3.47-13.852-4.816-20.551-5.219a47.747 47.747 0 0 0-1.21-.068 3.605 3.605 0 0 1-1.514-.403 3.481 3.481 0 0 1-1.234-1.036 3.602 3.602 0 0 1-.651-1.402l-.532-2.417-.943-4.25-.827-3.736c-.975-6.374-1.696-14.295-1.953-17.261"/>
  <path fill="#71DDB1" d="M138.048 178.994c-2.614 5.976-9.078 3.93-16.18-.371-4.407-2.669-8.168-3.049-10.388-2.968 3.129-.28 5.864-1.245 6.634-4.783.621-2.875-.999-5.512-3.801-6.36 6.737-.297 13.65.212 19.133 4.452.004 0 7.22 4.047 4.602 10.03Zm-23.78-88.3a.28.28 0 0 1-.072 0c.066.33.191.684.273 1.036a2.9 2.9 0 0 1 .085.814c-.089 1.283-.998 1.978-2.232 2.012a1.465 1.465 0 0 1-.789 1.459c-.661.347-1.745.27-2.243-.344-.589-.71-.297-1.592.062-2.37.129-.273.258-.532.364-.767.13-.293.242-.583.342-.88.353-1.098.626-2.22.818-3.358.235-1.15.39-2.313.464-3.483-.078-.284-.027-.696-.14-.992a2.466 2.466 0 0 0-.848-1.15c-.805-.593-1.878-.555-2.734-1.08a4.538 4.538 0 0 1-1.756-2.025c-.072-.174-.14-.399-.241-.594a.772.772 0 0 0-.202-.275c-.386-.325-.61.248-.848.47a2.331 2.331 0 0 1-1.823.606 2.417 2.417 0 0 1-.719-.212 2.47 2.47 0 0 1-.464-.326 1.986 1.986 0 0 0-.579-.392c-.403-.15-.424.515-.481.746a1.336 1.336 0 0 1-.702.941 1.634 1.634 0 0 1-.7.168 2.435 2.435 0 0 1-.835-.112 2.792 2.792 0 0 1-.735-.342.263.263 0 0 0-.41.236c.079 2.191-1.971 2.955-2.813 3.18a16.973 16.973 0 0 0 2.523 10.309 2.699 2.699 0 0 1-.528 1.223c-1.384.348-2.983-.03-3.583-1.223-.636-1.272-.549-3.034.44-3.941-.686-.106-.876-1.117-.484-1.71.034-.058.049-.092.028-.147-.085-.231-1.092-.424-1.368-.509a2.682 2.682 0 0 1-1.662-1.738c-.583-1.923.897-3.975 2.745-4.44-.549-.97-1.272-1.755-1.579-2.876-.307-1.122-.134-2.288.723-3.136a2.887 2.887 0 0 1 2.658-.716c.273.198.515.436.717.705a2.544 2.544 0 0 1-.297-.593A3.356 3.356 0 0 1 96.225 76c-.723-1.081-.454-2.557.358-3.51.981-1.15 2.91-1.402 4.255-.813.097.044.191.094.282.15.127.16.256.317.386.467.014-.04.031-.08.05-.119.273.28.532.575.774.882.874-2.484 4.344-2.49 6.178-1.195a3.39 3.39 0 0 1 1.032 1.183 2.63 2.63 0 0 1-.023 1.25c-.112.393-.023.69.229.774.19.046.39.02.562-.072.672-.303 1.227-.674 2.007-.59 2.544.27 4.399 3.577 2.892 5.735-.089.134-.191.26-.303.376-.212.212-.689.46-.795.763a.031.031 0 0 0 0 .023c-.191.636 1.217.778 1.592.941 3.324 1.402 2.623 8.237-1.433 8.449Z"/>
  <path stroke="#000" stroke-miterlimit="10" stroke-width=".842" d="M56.477 73.456c-.791-1.683-.212-4.043.689-5.826.689-1.384.14-3.604-1.62-3.852-1.827-.246-2.85 2.059-3.42 3.45a13.283 13.283 0 0 0-.987 4.852c-.047 1.77.083 3.542.388 5.287.14.75.392 1.47.57 2.203.197.801-.017 1.598-.308 2.349-1.138 2.881-2.74 5.578-3.947 8.438a58.619 58.619 0 0 0-3.127 9.361c-1.497 6.324-1.806 13.03-.057 19.337 3.307 11.919 20.066 8.005 29.663 4.664 4.013-1.397 6.784-2.697 6.784-2.697s.023.925.023 2.489v.212c.013 6.29-.24 22.095-2.949 31.484a1.935 1.935 0 0 1-1.872 1.397c-6.822-.027-35.548.942-30.104 19.494 1.84 6.267 8.966 8.52 18.069 8.599h.04c.74 0 1.497 0 2.264-.022h.051a91.39 91.39 0 0 0 10.102-.913c11.86-1.671 24.478-5.237 32.629-7.806.47-.124.951-.204 1.435-.24.202-.023.424-.04.674-.051h.022c2.215-.089 5.976.291 10.388 2.968 7.102 4.302 13.568 6.348 16.18.371 2.611-5.976-4.607-10.04-4.607-10.04-5.483-4.24-12.396-4.742-19.133-4.452-2.08.091-4.149.265-6.148.424-8.001.637-16.003 1.273-24.007 1.908l-10.486.848"/>
  <path stroke="#000" stroke-miterlimit="10" stroke-width=".842" d="M59.328 72.332s-1.142-2.308.272-5.919c.583-1.484 1.255-3.28.979-4.905a2.313 2.313 0 0 0-.89-1.514 1.63 1.63 0 0 0-1.207-.29c-1.64.228-2.56 2.287-3.116 4.063"/>
  <path stroke="#000" stroke-miterlimit="10" stroke-width=".842" d="M61.715 70.992s-1.085-1.838.395-4.664c.248-.47.667-1.223 1.06-2.08 1.021-2.147 1.963-4.977-.096-5.791-1.036-.41-2.332.28-3.01 1.05-.138.156-.267.32-.386.491"/>
  <path stroke="#000" stroke-miterlimit="10" stroke-width=".842" d="M63.176 64.236a5.439 5.439 0 0 1 1.599-.106c1.2.106 2.584.587 3.05 1.743.252.636.161 1.783-.483 2.14-.819.45-1.821.153-2.64.573-.913.47-1.272 1.732-1.138 2.686.026.374.175.73.424 1.01 1.446 1.445 2.438-2.545 2.987-3.202.746-.897 1.838-.735 2.618.021 1.425 1.378.965 3.776.48 5.46-.681 2.355-1.85 5.153-3.817 6.713-.704.556-1.874 1.272-1.963 2.265 0 0-3.962 12.751-3.725 19.754a3.982 3.982 0 0 0 1.447 2.953 3.994 3.994 0 0 0 3.173.863c2.12-.346 4.253-.67 6.36-1.06a468.38 468.38 0 0 1 4.484-.802c6.654-1.132 13.298-2.011 20.025-2.041a1.35 1.35 0 0 0 1.336-1.16l.127-.922.837-5.175m51.334-21.372c.791-1.683.212-4.043-.689-5.825-.695-1.385-.14-3.604 1.62-3.852.061 0 .123-.011.18-.011 1.732-.085 2.707 2.165 3.256 3.504.639 1.594.968 3.295.971 5.012a25.435 25.435 0 0 1-.32 4.323c-.195 1.187-.825 2.366-.733 3.587.072 1.026.678 1.997 1.104 2.921 1.838 3.958 3.99 7.78 5.465 11.872a30.86 30.86 0 0 1 1.317 4.709 34.67 34.67 0 0 1-1.166 17.443c-1.022 3.04-2.82 6.033-5.41 7.984-.269.202-.544.393-.825.572-3.358 2.175-7.67 2.82-11.598 2.735-4.173-.089-8.37-.941-12.375-2.08-.699-.2-1.396-.412-2.09-.636-.729-.231-1.452-.466-2.175-.712-.757-.263-1.514-.528-2.264-.808"/>
  <path stroke="#000" stroke-miterlimit="10" stroke-width=".842" d="M150.802 64.889c-.555-1.777-1.484-3.835-3.116-4.064a1.632 1.632 0 0 0-1.207.29 2.312 2.312 0 0 0-.89 1.514c-.276 1.626.396 3.42.979 4.906 1.414 3.604.27 5.92.27 5.92"/>
  <path stroke="#000" stroke-miterlimit="10" stroke-width=".842" d="M146.479 61.115a6.019 6.019 0 0 0-.386-.494c-.684-.767-1.973-1.456-3.012-1.047-2.057.812-1.115 3.644-.093 5.792.402.848.822 1.609 1.06 2.08 1.484 2.83.392 4.664.392 4.664"/>
  <path stroke="#000" stroke-miterlimit="10" stroke-width=".842" d="M142.988 65.366a5.517 5.517 0 0 0-1.599-.108c-1.2.108-2.584.59-3.051 1.745-.252.636-.161 1.782.484 2.14.818.45 1.821.151 2.639.573.914.47 1.272 1.732 1.139 2.686a1.697 1.697 0 0 1-.424 1.01c-1.446 1.445-2.438-2.545-2.987-3.202-.747-.899-1.838-.735-2.619.021-1.537 1.484-.869 4.474-.224 6.27.701 1.96 1.609 4.027 3.061 5.554 2.417 2.544 2.68 6.572 3.32 9.838.263 1.353.515 2.714.716 4.077.403 2.64.636 5.3.424 7.967a5.323 5.323 0 0 1-6.112 4.876c-9.48-1.452-27.829-4.401-27.829-4.401a.65.65 0 0 1-.538-.636l-.089-8.096M94.302 83.653c-.388 4.17 1.06 8.885 3.773 11.993 5.063 5.79 9.328 0 9.328 0"/>
  <path stroke="#000" stroke-miterlimit="10" stroke-width=".842" d="M111.395 84.946c-.148-.275-.061-.773-.188-1.123a2.499 2.499 0 0 0-.848-1.151c-.81-.592-1.881-.556-2.735-1.078a4.585 4.585 0 0 1-1.76-2.028c-.118-.267-.212-.675-.439-.867-.388-.325-.612.246-.848.47a2.286 2.286 0 0 1-2.544.395c-.381-.19-.646-.569-1.045-.72-.398-.15-.424.514-.483.747a1.349 1.349 0 0 1-.697.944c-.702.345-1.66.118-2.271-.29a.263.263 0 0 0-.411.236c.095 2.757-3.17 3.25-3.17 3.25"/>
  <path stroke="#000" stroke-miterlimit="10" stroke-width=".842" d="M98.909 89.718a2.955 2.955 0 1 0 0-5.91 2.955 2.955 0 0 0 0 5.91Zm7.659-.262a2.955 2.955 0 1 0 0-5.91 2.955 2.955 0 0 0 0 5.91Z"/>
  <path stroke="#000" stroke-miterlimit="10" stroke-width=".842" d="M97.673 87.06s1.191 1.367 2.416 0m5.275 0s1.191 1.367 2.419 0m-4.69 6.519a1.04 1.04 0 1 0 0-2.082 1.04 1.04 0 0 0 0 2.082Zm-1.229-6.816s.67-1.092 1.749-.263m-3.108-4.123s-3.068-2.345-5.64-.134m14.616-1.096s-3.644-1.272-5.404 1.622"/>
  <path stroke="#000" stroke-miterlimit="10" stroke-width=".842" d="M96.736 93.867a2.343 2.343 0 0 1-1.633 2.199c-1.513.447-3.116-.69-3.773-2.002a2.779 2.779 0 0 1 .186-2.9.365.365 0 0 0-.131-.513 1.986 1.986 0 0 1-.916-2.13.377.377 0 0 0-.335-.446 3.139 3.139 0 0 1-.458-.076 2.868 2.868 0 0 1-1.783-1.861c-.636-2.07.965-4.278 2.955-4.777-.593-1.043-1.38-1.884-1.696-3.095-.316-1.21-.133-2.461.785-3.364 1.43-1.402 3.858-.965 5.011.572-.778-1.166-.487-2.756.388-3.778 1.06-1.234 3.127-1.503 4.575-.875.689.303 1.132.93 1.603 1.484.941-2.663 4.664-2.68 6.644-1.285 1.03.736 1.696 2.07 1.368 3.286-.174.617.146.986.79.702.645-.284 1.228-.674 2.008-.59 2.701.287 4.619 3.986 2.588 6.11-.212.225-.689.46-.795.763-.231.636 1.205.802 1.586.965 3.354 1.408 2.618 8.315-1.484 8.455.123.587.403 1.238.358 1.844-.089 1.283-.998 1.978-2.232 2.018a1.464 1.464 0 0 1-.789 1.452c-.661.352-1.744.27-2.242-.343-.798-.963.021-2.224.424-3.144.593-1.346.886-2.798 1.155-4.24.246-1.195.405-2.405.475-3.623v-.051M10.6 183.143h43.085m108.414 0H201.4"/>
</svg>
