<svg xmlns="http://www.w3.org/2000/svg" width="291" height="42" fill="none" viewBox="0 0 291 42">
  <path fill="#7A40F2" d="M1.18 23.929c-.042-3.328.608-6.297 1.95-8.906 1.375-2.642 3.333-4.7 5.874-6.172 2.54-1.505 5.475-2.278 8.803-2.321 4.224-.054 7.79 1.036 10.699 3.271 2.908 2.203 4.803 5.235 5.685 9.096l-10.127.13c-.625-1.272-1.485-2.237-2.582-2.895-1.064-.659-2.3-.979-3.708-.96-2.176.027-3.91.833-5.202 2.418-1.26 1.552-1.873 3.624-1.84 6.216.034 2.624.7 4.711 2 6.263 1.332 1.519 3.086 2.265 5.262 2.237 1.407-.018 2.635-.37 3.682-1.056 1.08-.686 1.915-1.672 2.507-2.96l10.127-.13c-.783 3.882-2.599 6.978-5.45 9.287-2.85 2.276-6.388 3.442-10.612 3.496-3.327.043-6.28-.64-8.859-2.046a15.36 15.36 0 0 1-6.03-6.02c-1.409-2.606-2.135-5.589-2.178-8.948Zm36.034 3.042c-.036-2.784.429-5.222 1.394-7.315.997-2.093 2.353-3.71 4.066-4.852 1.745-1.143 3.69-1.728 5.834-1.755 1.856-.024 3.46.323 4.814 1.042 1.353.719 2.406 1.697 3.158 2.936l-.048-3.744 9.407-.12.345 26.925-9.407.12-.048-3.743c-.72 1.257-1.763 2.263-3.13 3.016-1.334.754-2.913 1.142-4.737 1.165-2.144.028-4.103-.507-5.877-1.604-1.742-1.098-3.139-2.68-4.19-4.747-1.018-2.1-1.546-4.54-1.581-7.324Zm19.39-.25c-.022-1.727-.52-3.08-1.492-4.06-.94-.98-2.1-1.461-3.475-1.444-1.408.018-2.57.53-3.485 1.533-.915.972-1.362 2.338-1.34 4.098.023 1.727.505 3.097 1.446 4.11.94.98 2.115 1.46 3.523 1.442 1.375-.017 2.521-.528 3.436-1.532.947-1.004 1.41-2.386 1.387-4.146Zm24.064-8.997c1.036-1.549 2.3-2.781 3.792-3.696a9.31 9.31 0 0 1 4.83-1.407l.13 10.032-2.64.034c-2.048.026-3.563.445-4.544 1.258-.982.813-1.46 2.21-1.435 4.195l.151 11.759-9.407.12-.346-26.925 9.408-.121.06 4.751Zm21.454-1.283c.719-1.29 1.746-2.294 3.081-3.016 1.335-.753 2.914-1.141 4.738-1.164 2.144-.028 4.087.507 5.829 1.605 1.774 1.097 3.17 2.68 4.189 4.747 1.051 2.066 1.594 4.492 1.629 7.275.036 2.784-.444 5.238-1.441 7.363-.965 2.093-2.321 3.71-4.066 4.853-1.714 1.142-3.642 1.727-5.786 1.754-1.824.024-3.412-.308-4.765-.995-1.354-.718-2.407-1.713-3.159-2.983l.048 3.743-9.407.121-.456-35.517 9.407-.12.159 12.334Zm9.915 9.57c-.022-1.76-.52-3.114-1.492-4.061-.941-.98-2.099-1.462-3.475-1.444-1.376.018-2.537.529-3.484 1.533-.916 1.004-1.362 2.37-1.34 4.097.023 1.76.504 3.13 1.445 4.11.973.98 2.147 1.46 3.523 1.443 1.376-.017 2.521-.528 3.436-1.532.947-1.036 1.409-2.418 1.387-4.146Zm26.128 13.49c-2.687.034-5.11-.495-7.268-1.587-2.127-1.093-3.811-2.672-5.054-4.736-1.242-2.064-1.882-4.504-1.918-7.32-.035-2.784.541-5.223 1.731-7.319 1.221-2.095 2.88-3.717 4.978-4.864 2.129-1.147 4.538-1.738 7.225-1.773 2.688-.034 5.095.495 7.221 1.588a12.344 12.344 0 0 1 5.102 4.735c1.274 2.064 1.929 4.487 1.965 7.271.036 2.784-.557 5.24-1.778 7.368a12.339 12.339 0 0 1-4.978 4.864c-2.129 1.147-4.538 1.738-7.226 1.773Zm-.104-8.16c1.312-.016 2.393-.51 3.245-1.481.883-1.004 1.313-2.417 1.29-4.241-.024-1.824-.489-3.21-1.398-4.159-.876-.948-1.954-1.415-3.234-1.398-1.28.016-2.346.51-3.197 1.48-.852.972-1.266 2.37-1.242 4.193.023 1.856.457 3.259 1.302 4.208.844.949 1.922 1.415 3.234 1.398Zm35.352-19.799c3.104-.04 5.581.969 7.432 3.025 1.85 2.025 2.798 4.797 2.843 8.316l.201 15.695-9.407.12-.186-14.446c-.019-1.536-.435-2.73-1.246-3.584-.811-.886-1.889-1.32-3.233-1.303-1.407.018-2.506.48-3.294 1.386-.789.875-1.174 2.08-1.154 3.615l.186 14.447-9.408.121-.345-26.926 9.407-.12.049 3.84c.817-1.227 1.924-2.218 3.323-2.972 1.398-.786 3.009-1.19 4.832-1.214Zm38.708 3.008c.036 2.784-.894 5.116-2.79 6.996-1.865 1.848-4.749 2.797-8.652 2.848l-6.432.082.179 13.967-4.367.056-.429-33.453 10.799-.139c3.775-.048 6.651.827 8.626 2.626 2.007 1.798 3.029 4.137 3.066 7.017Zm-11.488 6.244c2.431-.031 4.216-.582 5.355-1.653 1.138-1.07 1.695-2.582 1.67-4.534-.053-4.127-2.447-6.16-7.183-6.1l-6.432.082.158 12.287 6.432-.082Zm21.305-4.738c.749-1.514 1.822-2.695 3.219-3.545 1.429-.85 3.168-1.29 5.216-1.315l.058 4.511-1.152.015c-4.896.063-7.31 2.75-7.241 8.062l.183 14.302-4.368.056-.337-26.302 4.368-.056.054 4.272Zm15.684-8.746c-.832.01-1.54-.268-2.123-.837-.584-.568-.881-1.268-.891-2.1-.011-.832.268-1.54.837-2.123.568-.584 1.268-.88 2.1-.891.8-.01 1.476.269 2.027.838.584.568.881 1.269.891 2.1.011.832-.268 1.54-.837 2.123a2.66 2.66 0 0 1-2.004.89Zm2.166 4.245.338 26.302-4.368.056-.337-26.302 4.367-.056Zm20.253-.74c3.2-.041 5.804.902 7.813 2.828 2.008 1.894 3.036 4.665 3.083 8.313l.199 15.503-4.32.055-.191-14.879c-.033-2.623-.715-4.615-2.045-5.974-1.33-1.39-3.13-2.072-5.402-2.043-2.304.03-4.135.773-5.492 2.231-1.326 1.457-1.971 3.561-1.935 6.313l.186 14.543-4.367.056-.338-26.302 4.368-.056.048 3.744c.847-1.355 2.001-2.41 3.464-3.165 1.494-.755 3.137-1.144 4.929-1.167Zm23.266 3.782.198 15.502c.017 1.28.301 2.189.851 2.726.551.505 1.498.749 2.842.731l3.216-.04.047 3.695-3.935.05c-2.432.032-4.263-.505-5.494-1.61-1.23-1.104-1.861-2.936-1.894-5.495l-.199-15.503-3.408.044-.046-3.6 3.408-.044-.085-6.623 4.367-.056.085 6.623 6.864-.088.046 3.6-6.863.088Z"/>
</svg>
