<svg xmlns="http://www.w3.org/2000/svg" width="144" height="144" fill="none" viewBox="0 0 144 144">
  <path fill="#7A40F2" stroke="#7A40F2" d="M69.707 143.5c-4.61 0-9.256-.526-13.942-1.578-4.58-1.029-9.26-2.488-14.04-4.38 1.718-16.85 6.615-32.59 14.69-47.224 8.139-14.751 18.593-27.747 31.366-38.987l-.558-.82C71.677 58.432 58.211 68.904 46.83 81.922 35.607 94.76 27.717 109.387 23.164 125.8a14.88 14.88 0 0 1-.952-.864l-.002-.002-1.577-1.587v-.001c-6.577-6.583-11.575-13.931-15.001-22.045C2.205 93.186.494 84.723.5 75.909c0-9.519 1.887-18.614 5.662-27.292 3.777-8.682 9.022-16.384 15.737-23.107C33.225 14.172 47.916 6.778 65.998 3.343c18.02-3.424 43.315-3.759 75.906-.985 2.498 33.471 2.061 58.972-1.292 76.527-3.363 17.61-10.645 32-21.831 43.192-6.858 6.866-14.518 12.153-22.981 15.866-8.461 3.711-17.158 5.563-26.093 5.557Z"/>
</svg>
